<?xml version="1.0" standalone="no"?>
<!DOCTYPE svg PUBLIC "-//W3C//DTD SVG 20010904//EN"
 "http://www.w3.org/TR/2001/REC-SVG-20010904/DTD/svg10.dtd">
<svg id='logosvg' version="1.0" xmlns="http://www.w3.org/2000/svg"
 width="" height="" viewBox="0 0 900.000000 258.000000"
 preserveAspectRatio="xMidYMid meet">

<g transform="translate(0.000000,258.000000) scale(0.100000,-0.100000)"
 stroke="none">
<path d="M389 2283 c-99 -83 -223 -273 -244 -375 -4 -18 -14 -53 -22 -78 -12
-33 -16 -88 -16 -210 -1 -152 1 -172 26 -250 49 -155 132 -265 241 -319 52
-25 274 -91 308 -91 18 0 5 29 -37 85 -44 57 -145 219 -145 231 0 3 -6 20 -14
37 -31 73 -37 93 -56 178 -40 180 -14 338 82 497 21 34 38 65 38 67 0 12 -24
3 -55 -21 -60 -45 -138 -161 -179 -266 -16 -40 -39 -50 -50 -21 -9 22 22 248
41 303 34 97 80 184 121 228 14 16 16 32 3 32 -5 0 -24 -12 -42 -27z"/>
<path d="M1730 2301 c0 -5 7 -16 15 -24 21 -22 82 -136 110 -208 26 -67 49
-215 43 -284 -4 -55 -32 -60 -49 -8 -12 37 -48 108 -76 148 -42 62 -153 157
-153 131 0 -6 23 -47 51 -91 50 -79 89 -220 89 -322 0 -170 -88 -402 -221
-579 -54 -73 -70 -104 -52 -104 25 0 264 66 294 81 55 28 138 103 179 161 31
46 42 54 76 58 l39 5 5 385 5 385 305 0 c287 0 307 -1 331 -19 52 -41 64 -66
68 -153 4 -110 -19 -161 -87 -195 -43 -21 -64 -23 -262 -28 l-215 -5 -3 -52
c-3 -45 0 -53 15 -54 10 0 89 -2 176 -2 l159 -2 25 -30 c30 -36 170 -192 196
-217 14 -15 34 -18 102 -18 61 0 85 3 85 13 0 6 -52 64 -115 127 -63 63 -115
123 -115 132 0 9 17 27 37 39 51 32 90 76 115 129 31 66 31 245 0 311 -29 62
-81 115 -139 142 -47 21 -59 22 -430 25 -376 3 -382 3 -393 -17 -6 -12 -15
-21 -19 -21 -5 0 -33 28 -61 62 -67 81 -130 128 -130 99z"/>
<path d="M6934 2185 c-18 -12 -263 -408 -364 -588 -19 -34 -42 -73 -51 -87
-82 -126 -140 -233 -132 -241 6 -6 38 -9 73 -7 62 3 64 4 96 48 18 25 33 48
33 52 1 4 33 60 72 125 39 65 75 127 79 138 5 11 20 35 34 54 14 19 26 38 26
42 0 4 26 51 58 106 32 54 61 106 65 115 9 25 43 41 55 25 12 -16 131 -209
166 -270 45 -79 42 -81 -114 -87 l-134 -5 -28 -40 c-15 -22 -27 -46 -28 -52 0
-10 47 -13 201 -13 110 0 208 -4 217 -9 9 -5 35 -43 56 -85 22 -42 53 -92 69
-111 28 -34 31 -35 98 -35 57 0 69 3 69 16 0 9 -36 75 -79 148 -43 72 -87 145
-97 163 -16 26 -79 132 -129 214 -5 9 -28 48 -49 85 -22 38 -52 88 -68 111
-15 23 -28 45 -28 48 0 13 -74 120 -94 137 -26 22 -45 22 -72 3z"/>
<path d="M3144 2181 c-2 -2 -4 -211 -4 -463 l0 -458 403 2 402 3 0 65 0 65
-328 3 -328 2 -9 26 c-13 33 -13 555 0 588 l10 26 318 0 c234 0 321 3 330 12
16 16 16 117 0 123 -16 6 -788 11 -794 6z"/>
<path d="M4135 2168 c-3 -7 -4 -213 -3 -458 l3 -445 280 -3 c362 -3 436 12
546 115 127 119 174 296 130 496 -19 85 -116 213 -192 251 -101 52 -133 56
-456 56 -234 0 -305 -3 -308 -12z m661 -152 c67 -31 119 -86 145 -155 60 -155
17 -319 -106 -406 -71 -51 -106 -56 -345 -53 l-215 3 -3 305 c-1 168 0 310 3
317 3 10 59 13 237 13 224 0 235 -1 284 -24z"/>
<path d="M5604 2166 c-3 -7 -4 -38 -2 -67 l3 -54 165 -3 c95 -1 169 -7 175
-13 6 -6 12 -150 15 -387 l5 -377 60 0 60 0 5 382 c3 210 7 384 11 387 3 3 78
6 167 7 185 1 186 1 180 87 l-3 47 -418 3 c-348 2 -418 0 -423 -12z"/>
<path d="M7715 2168 c-3 -7 -4 -213 -3 -458 l3 -445 63 -3 c45 -2 62 0 62 10
3 149 5 756 2 821 l-4 87 -59 0 c-39 0 -61 -4 -64 -12z"/>
<path d="M8065 2168 c-3 -7 -4 -213 -3 -458 l3 -445 375 0 375 0 0 65 0 65
-301 3 c-236 2 -304 5 -313 16 -7 8 -12 134 -13 387 l-3 374 -58 3 c-40 2 -59
-1 -62 -10z"/>
<path d="M3424 1776 c-3 -7 -4 -33 -2 -57 l3 -44 245 0 245 0 0 55 0 55 -243
3 c-201 2 -243 0 -248 -12z"/>
<path d="M1023 1284 c-19 -8 -34 -23 -37 -36 -30 -147 -53 -219 -75 -232 -10
-6 -95 21 -126 40 -11 6 -30 15 -43 19 -23 7 -23 6 -9 -22 9 -16 36 -49 61
-75 53 -53 53 -72 -2 -88 -49 -13 -152 -13 -208 1 -25 6 -48 9 -51 5 -10 -9
45 -63 102 -101 78 -51 144 -80 225 -100 86 -21 170 -58 196 -86 22 -24 36
-24 58 0 26 28 98 60 201 88 107 30 147 49 242 117 102 72 109 95 23 77 -144
-31 -295 7 -233 59 31 26 93 100 93 110 0 16 -21 12 -88 -17 -74 -31 -92 -26
-104 30 -9 45 4 83 31 92 47 15 10 80 -66 119 -40 20 -145 20 -190 0z"/>
<path d="M1947 1003 c-4 -3 -7 -76 -7 -160 0 -142 1 -154 18 -151 10 2 18 14
20 28 5 46 12 70 21 70 5 0 26 -22 46 -50 22 -30 44 -50 56 -50 26 0 24 25 -6
64 -14 18 -25 35 -25 38 0 3 18 23 40 46 22 22 40 50 40 62 0 37 -30 81 -65
96 -35 14 -126 19 -138 7z m124 -53 c27 -15 26 -75 -1 -90 -35 -19 -73 -8 -84
22 -21 59 28 98 85 68z"/>
<path d="M3012 1002 c-9 -7 -12 -45 -10 -158 l3 -149 78 -3 c72 -3 77 -1 77
18 0 17 -6 20 -42 20 -58 0 -70 10 -66 51 3 31 6 34 43 39 80 11 82 39 3 49
-42 6 -43 6 -43 46 l0 40 47 5 c53 7 63 13 55 35 -5 11 -22 15 -69 15 -35 0
-69 -4 -76 -8z"/>
<path d="M3440 985 c-5 -14 -10 -32 -10 -39 0 -6 -5 -17 -11 -23 -9 -9 -9 -19
0 -40 6 -15 12 -53 12 -83 2 -77 9 -110 24 -110 19 0 25 24 25 105 0 52 4 76
15 85 8 7 15 18 15 25 0 7 -7 18 -15 25 -8 7 -15 23 -15 35 0 12 -7 28 -15 35
-12 10 -16 8 -25 -15z"/>
<path d="M4405 984 c-46 -49 -20 -129 49 -150 27 -8 66 -44 66 -60 0 -20 -29
-44 -54 -44 -13 0 -31 9 -41 20 -31 35 -66 20 -45 -20 29 -54 121 -62 159 -14
30 38 33 59 17 98 -11 27 -27 41 -63 58 -26 13 -51 28 -55 33 -14 18 -8 44 12
55 16 8 26 6 49 -11 49 -36 73 2 25 40 -38 30 -89 28 -119 -5z"/>
<path d="M4912 998 c-8 -8 -12 -55 -12 -144 0 -140 4 -164 26 -164 16 0 16 -4
16 168 1 132 -6 164 -30 140z"/>
<path d="M5425 1000 c-4 -6 -3 -16 3 -22 6 -6 12 -6 17 2 4 6 3 16 -3 22 -6 6
-12 6 -17 -2z"/>
<path d="M6440 988 c-18 -19 -21 -31 -16 -73 6 -44 3 -54 -19 -79 -36 -41 -33
-80 9 -122 40 -40 60 -42 116 -13 39 20 42 21 60 4 10 -9 24 -14 29 -10 16 9
13 41 -4 55 -19 16 -19 33 1 72 22 42 5 58 -32 29 -51 -40 -74 -15 -34 36 27
34 25 69 -5 98 -31 32 -77 33 -105 3z m78 -54 c2 -13 -4 -24 -13 -28 -24 -9
-35 1 -35 30 0 21 4 25 23 22 13 -2 23 -11 25 -24z m-16 -131 c24 -22 23 -60
-2 -68 -47 -15 -82 23 -60 65 13 24 37 26 62 3z"/>
<path d="M6840 1000 c-12 -7 -16 -35 -18 -127 -1 -65 0 -133 3 -151 l6 -33 72
3 c56 2 72 6 72 18 0 10 -13 17 -40 20 -52 7 -65 16 -65 43 0 35 16 50 51 49
18 0 39 4 46 10 20 16 -3 38 -41 38 -45 0 -58 12 -54 51 3 32 5 34 45 37 42 3
70 23 58 42 -8 13 -115 13 -135 0z"/>
<path d="M7330 985 c-5 -14 -10 -31 -10 -37 0 -6 -7 -19 -15 -28 -14 -15 -14
-18 0 -30 11 -9 15 -32 15 -84 0 -90 7 -116 31 -116 17 0 19 8 19 89 0 66 4
92 15 101 19 16 19 34 1 50 -8 6 -16 25 -18 42 -4 40 -25 47 -38 13z"/>
<path d="M2766 984 c-3 -9 -6 -73 -6 -144 0 -99 3 -130 15 -140 29 -24 35 0
35 151 0 140 -1 149 -19 149 -10 0 -22 -7 -25 -16z"/>
<path d="M3860 973 c0 -16 -7 -36 -15 -47 -12 -16 -12 -22 0 -47 9 -17 15 -57
15 -103 0 -43 5 -78 11 -82 21 -13 33 17 31 78 -3 61 12 118 29 118 15 0 10
27 -5 33 -8 3 -18 22 -22 41 -4 26 -11 36 -25 36 -14 0 -19 -7 -19 -27z"/>
<path d="M5294 983 c-3 -10 -10 -30 -16 -45 -6 -16 -7 -38 -3 -50 5 -13 11
-61 14 -108 5 -70 9 -85 24 -88 15 -3 17 6 17 74 0 59 5 84 20 109 18 28 18
34 5 45 -8 6 -17 27 -21 46 -7 36 -31 46 -40 17z"/>
<path d="M8302 989 c2 -6 8 -10 13 -10 5 0 11 4 13 10 2 6 -4 11 -13 11 -9 0
-15 -5 -13 -11z"/>
<path d="M2233 910 c-42 -25 -53 -48 -53 -107 1 -67 52 -123 113 -123 44 0 97
29 97 52 0 22 -6 21 -66 -3 -28 -11 -36 -10 -59 5 -46 30 -29 51 45 54 94 3
110 9 110 35 0 32 -36 86 -66 97 -40 15 -86 12 -121 -10z m112 -36 c31 -31 15
-49 -45 -49 -46 0 -55 3 -58 19 -8 41 70 63 103 30z"/>
<path d="M2523 916 c-31 -14 -73 -77 -73 -111 0 -9 9 -34 20 -55 25 -49 70
-75 114 -65 17 4 49 7 71 8 l40 2 0 110 0 110 -35 1 c-19 0 -51 3 -70 7 -22 4
-47 2 -67 -7z m112 -51 c39 -38 31 -106 -16 -130 -39 -20 -53 -19 -85 9 -22
18 -28 32 -27 61 2 76 78 111 128 60z"/>
<path d="M3252 918 c-50 -25 -40 -87 21 -120 27 -15 42 -30 42 -43 0 -20 -14
-23 -70 -13 -33 5 -30 -29 4 -46 40 -21 63 -20 95 5 36 28 36 80 0 108 -15 12
-33 21 -40 21 -14 0 -39 38 -31 46 8 8 41 7 60 -1 13 -5 17 -2 17 14 0 14 -9
25 -26 31 -31 12 -43 12 -72 -2z"/>
<path d="M3598 915 c-106 -60 -55 -251 61 -230 20 3 53 7 74 8 21 1 42 8 46
16 10 16 7 189 -4 199 -4 4 -21 8 -38 8 -18 1 -50 5 -72 8 -27 4 -49 1 -67 -9z
m117 -50 c43 -43 31 -112 -24 -135 -26 -10 -35 -10 -63 7 -29 16 -33 25 -36
65 -3 40 1 49 24 67 35 28 69 27 99 -4z"/>
<path d="M4035 921 c-52 -22 -81 -110 -56 -173 13 -33 65 -68 103 -68 42 0 98
30 98 53 0 21 -7 20 -66 -4 -28 -11 -36 -10 -59 5 -15 10 -25 24 -23 34 3 14
18 18 82 22 94 6 105 16 81 73 -23 55 -99 83 -160 58z m97 -48 c36 -33 17 -53
-51 -53 -50 0 -64 15 -44 46 18 29 67 32 95 7z"/>
<path d="M4685 923 c-75 -20 -103 -126 -52 -195 34 -46 95 -59 151 -33 41 20
66 63 66 114 0 78 -84 136 -165 114z m90 -58 c61 -60 5 -164 -72 -134 -58 22
-71 84 -26 131 33 35 66 36 98 3z"/>
<path d="M5578 919 c-38 -14 -68 -67 -68 -121 0 -36 6 -50 31 -76 53 -55 124
-55 178 -1 27 26 31 38 31 83 0 61 -18 92 -66 112 -38 16 -67 17 -106 3z m101
-50 c43 -46 33 -117 -19 -139 -23 -9 -34 -9 -59 4 -58 30 -67 82 -22 127 35
34 72 38 100 8z"/>
<path d="M5897 924 c-3 -4 -24 -6 -45 -6 l-39 1 -7 -52 c-13 -111 -6 -177 19
-177 19 0 25 24 25 94 0 70 18 106 54 106 41 0 55 -28 58 -115 3 -72 5 -80 23
-80 18 0 20 8 23 79 2 44 -2 92 -8 107 -14 34 -83 62 -103 43z"/>
<path d="M6107 923 c-9 -2 -24 -18 -33 -35 -14 -26 -14 -32 0 -52 8 -13 32
-32 53 -43 63 -33 39 -78 -27 -50 -8 4 -22 2 -30 -3 -13 -9 -11 -14 13 -35 36
-32 68 -32 106 1 50 42 39 78 -41 127 -16 10 -28 25 -28 34 0 13 7 14 40 9 41
-6 50 3 32 31 -9 14 -58 24 -85 16z"/>
<path d="M7098 923 l-48 -4 0 -115 c0 -105 2 -115 18 -112 14 3 18 18 24 82 8
85 25 116 64 116 33 0 47 -32 53 -120 5 -58 9 -75 21 -75 12 0 16 18 18 91 l3
92 -31 26 c-18 14 -41 25 -53 24 -12 -1 -43 -3 -69 -5z"/>
<path d="M7495 919 c-36 -18 -65 -72 -65 -118 0 -37 6 -49 39 -82 31 -31 46
-39 75 -39 48 0 96 25 96 50 0 24 -9 25 -53 4 -30 -14 -38 -15 -62 -3 -16 8
-30 19 -32 24 -7 25 16 34 92 37 l80 3 3 32 c5 51 -41 95 -104 99 -27 2 -58
-1 -69 -7z m106 -50 c30 -30 10 -49 -53 -49 -56 0 -72 18 -43 50 23 26 70 25
96 -1z"/>
<path d="M7937 920 c-9 -6 -25 -9 -35 -6 -38 12 -43 -5 -43 -145 0 -74 0 -140
0 -146 1 -19 38 -16 45 3 3 9 4 20 1 25 -3 5 -1 18 5 29 9 16 15 18 30 10 47
-25 119 0 146 52 23 44 13 124 -20 156 -27 27 -100 39 -129 22z m94 -59 c47
-47 33 -104 -31 -131 -25 -10 -34 -10 -55 4 -25 16 -45 53 -45 81 0 7 12 27
26 44 33 40 66 40 105 2z"/>
<path d="M8432 920 c-35 -15 -48 -54 -28 -85 10 -14 25 -29 34 -32 20 -7 62
-43 62 -54 0 -15 -38 -19 -64 -8 -21 10 -29 10 -39 0 -9 -10 -6 -17 16 -37 56
-48 129 -20 129 50 0 43 -3 46 -52 73 -19 11 -37 28 -39 38 -3 16 2 17 38 11
37 -6 41 -4 41 14 0 13 -10 24 -26 30 -30 12 -42 12 -72 0z"/>
<path d="M8655 921 c-53 -22 -78 -96 -55 -166 14 -41 59 -75 102 -75 34 0 98
30 98 45 0 22 -12 23 -55 7 -40 -14 -45 -14 -70 2 -15 10 -25 24 -23 34 3 14
18 18 82 22 94 6 106 17 82 73 -22 55 -100 83 -161 58z m97 -48 c37 -33 17
-53 -52 -53 -50 0 -66 19 -39 48 24 26 65 28 91 5z"/>
<path d="M5010 826 c0 -94 0 -94 32 -121 27 -23 37 -26 67 -20 20 4 51 7 69 6
l32 -1 0 116 c0 105 -2 115 -17 112 -15 -3 -19 -18 -24 -82 -4 -66 -9 -82 -28
-97 -29 -24 -33 -24 -62 0 -21 17 -24 30 -27 100 -4 72 -6 81 -23 81 -17 0
-19 -8 -19 -94z"/>
<path d="M5416 889 c-8 -40 -8 -147 0 -176 4 -13 12 -23 20 -23 20 0 25 33 22
135 -2 73 -6 90 -19 93 -11 2 -18 -7 -23 -29z"/>
<path d="M7737 913 c-4 -3 -7 -55 -7 -115 0 -99 2 -109 18 -106 14 3 18 17 23
78 6 82 13 106 35 114 8 3 14 12 14 21 0 11 -11 15 -38 15 -21 0 -42 -3 -45
-7z"/>
<path d="M8156 904 c-9 -24 -7 -187 3 -203 5 -8 16 -11 24 -8 11 4 16 26 18
79 3 57 9 80 26 102 13 16 20 32 17 37 -10 16 -81 10 -88 -7z"/>
<path d="M8296 889 c-8 -40 -8 -147 0 -176 4 -13 12 -23 20 -23 20 0 25 33 22
135 -2 73 -6 90 -19 93 -11 2 -18 -7 -23 -29z"/>
<path d="M885 563 c-15 -27 -45 -69 -66 -95 -22 -26 -39 -51 -39 -56 0 -20
109 -106 200 -158 52 -30 99 -54 105 -54 6 0 53 24 105 54 101 57 198 133 199
154 1 7 -19 37 -45 68 -25 31 -56 74 -70 95 -13 21 -27 39 -30 39 -15 0 -54
-28 -101 -72 -57 -52 -74 -54 -106 -8 -20 29 -89 79 -109 80 -9 0 -28 -20 -43
-47z"/>
</g>
</svg>
