<svg id="Layer_1" data-name="Layer 1" xmlns="http://www.w3.org/2000/svg" viewBox="0 0 917.5 567.71"><defs><style>.cls-1{fill:#ea1c24;}.cls-15,.cls-2,.cls-3{fill:#515425;}.cls-3{font-size:29.44px;font-family:Hero;}.cls-4{letter-spacing:-0.02em;}.cls-5{letter-spacing:0em;}.cls-6{letter-spacing:0em;}.cls-7{letter-spacing:0em;}.cls-8{letter-spacing:-0.01em;}.cls-9{letter-spacing:-0.01em;}.cls-10{letter-spacing:0em;}.cls-11{letter-spacing:0em;}.cls-12{letter-spacing:-0.01em;}.cls-13{letter-spacing:0.01em;}.cls-14{letter-spacing:-0.01em;}.cls-15{font-size:66.78px;font-family:GoodTimesRg-Regular, Good Times;}.cls-16{font-size:12px;font-family:MyriadPro-Regular, Myriad Pro;}.cls-17{letter-spacing:-0.01em;}.cls-18{letter-spacing:-0.01em;}.cls-19{letter-spacing:0em;}</style></defs><path class="cls-1" d="M276.66,217.58a31.29,31.29,0,0,0,15.63-12.52q5.58-8.7,5.58-21.57a45.06,45.06,0,0,0-2.54-15.56,31.55,31.55,0,0,0-19.1-19.31,44.3,44.3,0,0,0-15.7-2.61H186.7V248.84h1.57a3.82,3.82,0,0,1,.36-.34l.1-.09a3.11,3.11,0,0,1,.54-.35c.16-.17.33-.33.5-.49a47.53,47.53,0,0,0,9.3-12.16c0-.06.06-.14.1-.24a4,4,0,0,1,.72-1,.53.53,0,0,0,.09-.11,5.08,5.08,0,0,1,.35-.59,10.3,10.3,0,0,1,.57-1.32q.09-.27.21-.54a11.92,11.92,0,0,1,.62-1.3c.24-.73.5-1.45.79-2.16a4.25,4.25,0,0,1,.15-.56,4,4,0,0,1,.27-.59c.1-.4.19-.79.3-1.2a4.16,4.16,0,0,1,.59-1.31,3.31,3.31,0,0,1,.32-.82,1.88,1.88,0,0,1-.07.51,3.63,3.63,0,0,1,.54-.8c.14-.52.29-1,.42-1.54,5.55-22.08,3.31-42.4-.52-57.9h56q9.33,0,14.5,4.88t5.16,14.92q0,10-4.95,15.35t-14.71,5.3H217.67v15.85h38.48l26,28.57h25.46Z" transform="translate(-25.98 -135.29)"/><path class="cls-1" d="M317,248.84V146h91.79v18h-74v66.9H408.9v18Zm31-44.7V189h57v15.13Z" transform="translate(-25.98 -135.29)"/><path class="cls-1" d="M424.32,248.84V146h59.55A53.41,53.41,0,0,1,504,149.69,46.53,46.53,0,0,1,519.79,160a47.22,47.22,0,0,1,10.4,15.91,54,54,0,0,1,3.75,20.44,56.72,56.72,0,0,1-3.75,20.79,50.17,50.17,0,0,1-10.4,16.62,48.34,48.34,0,0,1-15.84,11,49.57,49.57,0,0,1-20.08,4Zm59.55-18a31.47,31.47,0,0,0,23-9.54,31.31,31.31,0,0,0,6.72-10.68A37,37,0,0,0,516,197.21a36.52,36.52,0,0,0-2.41-13.37,30.66,30.66,0,0,0-6.72-10.53,31,31,0,0,0-10.18-6.86,32.6,32.6,0,0,0-12.8-2.48H442.14v66.9Z" transform="translate(-25.98 -135.29)"/><path class="cls-1" d="M623.19,248.84V164h-39V146h96v18h-39v84.87Z" transform="translate(-25.98 -135.29)"/><path class="cls-1" d="M779.91,248.84,764.49,223H715.83l8.49-14.57h31.54L733,169.91l-46.68,78.93H665.76l59.13-98.45a13.59,13.59,0,0,1,3.67-4.24,8.36,8.36,0,0,1,5.09-1.56,8.06,8.06,0,0,1,5,1.56,14.24,14.24,0,0,1,3.6,4.24l59.27,98.45Z" transform="translate(-25.98 -135.29)"/><path class="cls-1" d="M813.57,248.84V146h18V248.84Z" transform="translate(-25.98 -135.29)"/><path class="cls-1" d="M850.34,248.84V146h18v84.86h69.16v18Z" transform="translate(-25.98 -135.29)"/><path class="cls-2" d="M91,265.6l-14.4-17.72L98.46,257c1.81-6.94,3.78-12.78,4.76-18.79.77-4.72,3-6.74,7.49-7.7,11-2.36,19.4,1.07,23.75,10.66-5.81,3.32-8.51,7.85-3.19,14.84l19.06-8.11-14.06,17.65c10,4.93,20,2,31.61-.66-9.72,10.91-20,17.51-32.59,21.13-7.49,2.16-14.64,5.52-21.64,8.23-7.28-2.72-15.18-6-23.3-8.61C78.5,281.8,68.56,275.37,59.24,264.8,70.63,267.58,80.48,270.2,91,265.6Z" transform="translate(-25.98 -135.29)"/><path class="cls-1" d="M83.17,312.87c5.29-7.5,9.09-13.28,13.38-18.67.89-1.12,4.2-1.67,5.4-.92,3.93,2.48,7.41,5.68,11.44,8.91l14.76-11.11,15.07,20.35c-7.73,9-17.66,14.83-28.2,19.76a5.15,5.15,0,0,1-4.15-.5C101.72,324.94,92.68,319,83.17,312.87Z" transform="translate(-25.98 -135.29)"/><path class="cls-2" d="M51.18,207.71a3.86,3.86,0,0,1-.25-1.64,57.6,57.6,0,0,1,.14-18c2.4-13.86,9.94-24.1,15.12-30a22.08,22.08,0,0,0-6.13,3c-25,17.27-33.39,58.54-17.12,83.77,7.66,11.88,26.16,20.3,39.68,18C80,262,56.11,237.08,51.18,207.71Z" transform="translate(-25.98 -135.29)"/><path class="cls-1" d="M43.16,196.62a5.11,5.11,0,0,1-.27-2A80.58,80.58,0,0,1,43,172.93c2.48-16.71,10.29-29.05,15.65-36.15a21.43,21.43,0,0,0-6.35,3.58c-25.84,20.81-34.55,70.58-17.71,101C42.55,255.67,61.7,265.82,75.7,263,73,262.09,48.26,232,43.16,196.62Z" transform="translate(-25.98 -135.29)"/><path class="cls-2" d="M178.44,207a3.59,3.59,0,0,0,.26-1.62,56,56,0,0,0-.14-17.75c-2.4-13.66-9.95-23.75-15.13-29.55a22.08,22.08,0,0,1,6.14,2.92c25,17,33.38,57.71,17.11,82.58-7.66,11.7-26.16,20-39.68,17.72C149.63,260.53,173.51,236,178.44,207Z" transform="translate(-25.98 -135.29)"/><path class="cls-1" d="M191.69,244.81c.73-1.06,1.47-2.12,2.23-3.16.38-.59.74-1.18,1.07-1.79,16.84-30.42,8.13-80.18-17.71-101a21.63,21.63,0,0,0-6.35-3.57c5.36,7.09,13.17,19.44,15.66,36.14a81.06,81.06,0,0,1,.14,21.72,5.25,5.25,0,0,1-.26,2c-5.1,35.41-29.82,65.47-32.54,66.41C166.25,264,182.55,256.42,191.69,244.81Z" transform="translate(-25.98 -135.29)"/><text class="cls-3" transform="translate(257.89 208.33)"><tspan class="cls-4">P</tspan><tspan class="cls-5" x="15.19" y="0">r</tspan><tspan class="cls-6" x="24.93" y="0">i</tspan><tspan class="cls-7" x="31.82" y="0">va</tspan><tspan class="cls-8" x="59.93" y="0">t</tspan><tspan x="69.5" y="0">e money </tspan><tspan class="cls-9" x="182.39" y="0">f</tspan><tspan x="190.6" y="0">or </tspan><tspan class="cls-5" x="222.63" y="0">R</tspan><tspan class="cls-10" x="238.58" y="0">eal Est</tspan><tspan class="cls-11" x="316.59" y="0">a</tspan><tspan class="cls-12" x="330.66" y="0">t</tspan><tspan class="cls-10" x="340.23" y="0">e </tspan><tspan class="cls-13" x="361.21" y="0">I</tspan><tspan class="cls-9" x="368.54" y="0">n</tspan><tspan class="cls-14" x="384.5" y="0">v</tspan><tspan class="cls-10" x="398.36" y="0">es</tspan><tspan class="cls-12" x="424.77" y="0">t</tspan><tspan class="cls-10" x="434.33" y="0">ors</tspan></text><text class="cls-15" transform="translate(558.63 174.46)">FUNDING</text><rect class="cls-1" x="451.74" y="236.27" width="1.9"/><rect class="cls-1" x="826.41" y="198.33" width="87.61" height="3.79"/><rect class="cls-1" x="162.59" y="196.44" width="87.61" height="3.79"/><text class="cls-16" transform="translate(386.02 564.71)"><tspan class="cls-17">L</tspan><tspan x="5.5" y="0">o</tspan><tspan class="cls-18" x="12.08" y="0">r</tspan><tspan class="cls-19" x="15.89" y="0">em ipsum</tspan></text><text class="cls-16" transform="translate(657.02 474.71)"><tspan class="cls-17">L</tspan><tspan x="5.5" y="0">o</tspan><tspan class="cls-18" x="12.08" y="0">r</tspan><tspan x="15.89" y="0">em ipsum</tspan></text><text class="cls-16" transform="translate(501.02 499.71)"><tspan class="cls-17">L</tspan><tspan x="5.5" y="0">o</tspan><tspan class="cls-18" x="12.08" y="0">r</tspan><tspan x="15.89" y="0">em ipsum</tspan></text></svg>